{
    "asset" : {
        "generator" : "Khronos glTF Blender I/O v3.3.36",
        "version" : "2.0"
    },
    "scene" : 0,
    "scenes" : [
        {
            "name" : "Scene",
            "nodes" : [
                9
            ]
        }
    ],
    "nodes" : [
        {
            "name" : "head",
            "rotation" : [
                -1.0646962422811157e-08,
                0,
                0,
                1
            ],
            "translation" : [
                0,
                1.026381492614746,
                8.881784197001252e-16
            ]
        },
        {
            "name" : "tail.001",
            "rotation" : [
                1.0646967751881675e-08,
                -3.552713678800501e-15,
                -2.086236696076868e-22,
                1
            ],
            "translation" : [
                8.704376551404153e-22,
                0.8120763897895813,
                8.881784197001252e-15
            ]
        },
        {
            "children" : [
                1
            ],
            "name" : "tail",
            "rotation" : [
                4.371139183945161e-08,
                -8.881784197001252e-16,
                1,
                9.307872474414503e-16
            ],
            "translation" : [
                0,
                -0.11858892440795898,
                2.5252173685430535e-09
            ]
        },
        {
            "name" : "wing.001.R",
            "rotation" : [
                0.015433418564498425,
                0.00042600338929332793,
                0.2365783452987671,
                0.9714898467063904
            ],
            "scale" : [
                1.0000001192092896,
                1.000000238418579,
                1.0000001192092896
            ],
            "translation" : [
                6.984919309616089e-09,
                1.5606846809387207,
                1.3969838619232178e-09
            ]
        },
        {
            "children" : [
                3
            ],
            "name" : "wing.R",
            "rotation" : [
                0.051721204072237015,
                -0.046438977122306824,
                0.7033668756484985,
                0.707420289516449
            ],
            "translation" : [
                -0.41020575165748596,
                0.4626171588897705,
                0.005092661362141371
            ]
        },
        {
            "name" : "wing.001.L",
            "rotation" : [
                0.015433418564498425,
                -0.00042600338929332793,
                -0.2365783452987671,
                0.9714898467063904
            ],
            "scale" : [
                1.0000001192092896,
                1.000000238418579,
                1.0000001192092896
            ],
            "translation" : [
                -6.984919309616089e-09,
                1.5606846809387207,
                1.3969838619232178e-09
            ]
        },
        {
            "children" : [
                5
            ],
            "name" : "wing.L",
            "rotation" : [
                0.051721204072237015,
                0.046438977122306824,
                -0.7033668756484985,
                0.707420289516449
            ],
            "translation" : [
                0.41020575165748596,
                0.4626171588897705,
                0.005092661362141371
            ]
        },
        {
            "children" : [
                0,
                2,
                4,
                6
            ],
            "name" : "spine",
            "rotation" : [
                -5.6043636398328545e-09,
                0,
                0,
                1
            ],
            "translation" : [
                0,
                -0.5198847055435181,
                2.2724879755742222e-08
            ]
        },
        {
            "mesh" : 0,
            "name" : "Cube",
            "skin" : 0
        },
        {
            "children" : [
                8,
                7
            ],
            "name" : "Armature.001",
            "rotation" : [
                0.7071068286895752,
                0,
                0,
                0.7071068286895752
            ],
            "scale" : [
                0.2480252981185913,
                0.2480252981185913,
                0.2480252981185913
            ]
        }
    ],
    "animations" : [
        {
            "channels" : [
                {
                    "sampler" : 0,
                    "target" : {
                        "node" : 7,
                        "path" : "translation"
                    }
                },
                {
                    "sampler" : 1,
                    "target" : {
                        "node" : 7,
                        "path" : "rotation"
                    }
                },
                {
                    "sampler" : 2,
                    "target" : {
                        "node" : 7,
                        "path" : "scale"
                    }
                },
                {
                    "sampler" : 3,
                    "target" : {
                        "node" : 0,
                        "path" : "translation"
                    }
                },
                {
                    "sampler" : 4,
                    "target" : {
                        "node" : 0,
                        "path" : "rotation"
                    }
                },
                {
                    "sampler" : 5,
                    "target" : {
                        "node" : 0,
                        "path" : "scale"
                    }
                },
                {
                    "sampler" : 6,
                    "target" : {
                        "node" : 2,
                        "path" : "translation"
                    }
                },
                {
                    "sampler" : 7,
                    "target" : {
                        "node" : 2,
                        "path" : "rotation"
                    }
                },
                {
                    "sampler" : 8,
                    "target" : {
                        "node" : 2,
                        "path" : "scale"
                    }
                },
                {
                    "sampler" : 9,
                    "target" : {
                        "node" : 1,
                        "path" : "translation"
                    }
                },
                {
                    "sampler" : 10,
                    "target" : {
                        "node" : 1,
                        "path" : "rotation"
                    }
                },
                {
                    "sampler" : 11,
                    "target" : {
                        "node" : 1,
                        "path" : "scale"
                    }
                },
                {
                    "sampler" : 12,
                    "target" : {
                        "node" : 4,
                        "path" : "translation"
                    }
                },
                {
                    "sampler" : 13,
                    "target" : {
                        "node" : 4,
                        "path" : "rotation"
                    }
                },
                {
                    "sampler" : 14,
                    "target" : {
                        "node" : 4,
                        "path" : "scale"
                    }
                },
                {
                    "sampler" : 15,
                    "target" : {
                        "node" : 3,
                        "path" : "translation"
                    }
                },
                {
                    "sampler" : 16,
                    "target" : {
                        "node" : 3,
                        "path" : "rotation"
                    }
                },
                {
                    "sampler" : 17,
                    "target" : {
                        "node" : 3,
                        "path" : "scale"
                    }
                },
                {
                    "sampler" : 18,
                    "target" : {
                        "node" : 6,
                        "path" : "translation"
                    }
                },
                {
                    "sampler" : 19,
                    "target" : {
                        "node" : 6,
                        "path" : "rotation"
                    }
                },
                {
                    "sampler" : 20,
                    "target" : {
                        "node" : 6,
                        "path" : "scale"
                    }
                },
                {
                    "sampler" : 21,
                    "target" : {
                        "node" : 5,
                        "path" : "translation"
                    }
                },
                {
                    "sampler" : 22,
                    "target" : {
                        "node" : 5,
                        "path" : "rotation"
                    }
                },
                {
                    "sampler" : 23,
                    "target" : {
                        "node" : 5,
                        "path" : "scale"
                    }
                }
            ],
            "name" : "birdflap",
            "samplers" : [
                {
                    "input" : 7,
                    "interpolation" : "LINEAR",
                    "output" : 8
                },
                {
                    "input" : 7,
                    "interpolation" : "LINEAR",
                    "output" : 9
                },
                {
                    "input" : 7,
                    "interpolation" : "LINEAR",
                    "output" : 10
                },
                {
                    "input" : 7,
                    "interpolation" : "LINEAR",
                    "output" : 11
                },
                {
                    "input" : 7,
                    "interpolation" : "LINEAR",
                    "output" : 12
                },
                {
                    "input" : 7,
                    "interpolation" : "LINEAR",
                    "output" : 13
                },
                {
                    "input" : 7,
                    "interpolation" : "LINEAR",
                    "output" : 14
                },
                {
                    "input" : 7,
                    "interpolation" : "LINEAR",
                    "output" : 15
                },
                {
                    "input" : 7,
                    "interpolation" : "LINEAR",
                    "output" : 16
                },
                {
                    "input" : 7,
                    "interpolation" : "LINEAR",
                    "output" : 17
                },
                {
                    "input" : 7,
                    "interpolation" : "LINEAR",
                    "output" : 18
                },
                {
                    "input" : 7,
                    "interpolation" : "LINEAR",
                    "output" : 19
                },
                {
                    "input" : 7,
                    "interpolation" : "LINEAR",
                    "output" : 20
                },
                {
                    "input" : 7,
                    "interpolation" : "LINEAR",
                    "output" : 21
                },
                {
                    "input" : 7,
                    "interpolation" : "LINEAR",
                    "output" : 22
                },
                {
                    "input" : 7,
                    "interpolation" : "LINEAR",
                    "output" : 23
                },
                {
                    "input" : 7,
                    "interpolation" : "LINEAR",
                    "output" : 24
                },
                {
                    "input" : 7,
                    "interpolation" : "LINEAR",
                    "output" : 25
                },
                {
                    "input" : 7,
                    "interpolation" : "LINEAR",
                    "output" : 26
                },
                {
                    "input" : 7,
                    "interpolation" : "LINEAR",
                    "output" : 27
                },
                {
                    "input" : 7,
                    "interpolation" : "LINEAR",
                    "output" : 28
                },
                {
                    "input" : 7,
                    "interpolation" : "LINEAR",
                    "output" : 29
                },
                {
                    "input" : 7,
                    "interpolation" : "LINEAR",
                    "output" : 30
                },
                {
                    "input" : 7,
                    "interpolation" : "LINEAR",
                    "output" : 31
                }
            ]
        }
    ],
    "materials" : [
        {
            "doubleSided" : true,
            "name" : "Material",
            "pbrMetallicRoughness" : {
                "baseColorTexture" : {
                    "index" : 0
                },
                "metallicFactor" : 0,
                "roughnessFactor" : 0.4000000059604645
            }
        }
    ],
    "meshes" : [
        {
            "name" : "Cube",
            "primitives" : [
                {
                    "attributes" : {
                        "POSITION" : 0,
                        "NORMAL" : 1,
                        "TEXCOORD_0" : 2,
                        "JOINTS_0" : 3,
                        "WEIGHTS_0" : 4
                    },
                    "indices" : 5,
                    "material" : 0
                }
            ]
        }
    ],
    "textures" : [
        {
            "sampler" : 0,
            "source" : 0
        }
    ],
    "images" : [
        {
            "bufferView" : 6,
            "mimeType" : "image/jpeg",
            "name" : "bsptD"
        }
    ],
    "skins" : [
        {
            "inverseBindMatrices" : 6,
            "joints" : [
                7,
                0,
                2,
                1,
                4,
                3,
                6,
                5
            ],
            "name" : "Armature.001"
        }
    ],
    "accessors" : [
        {
            "bufferView" : 0,
            "componentType" : 5126,
            "count" : 886,
            "max" : [
                0.8196775913238525,
                0.06966143846511841,
                0.4330621361732483
            ],
            "min" : [
                -0.8196775913238525,
                -0.12681648135185242,
                -0.49283480644226074
            ],
            "type" : "VEC3"
        },
        {
            "bufferView" : 1,
            "componentType" : 5126,
            "count" : 886,
            "type" : "VEC3"
        },
        {
            "bufferView" : 2,
            "componentType" : 5126,
            "count" : 886,
            "type" : "VEC2"
        },
        {
            "bufferView" : 3,
            "componentType" : 5121,
            "count" : 886,
            "type" : "VEC4"
        },
        {
            "bufferView" : 4,
            "componentType" : 5126,
            "count" : 886,
            "type" : "VEC4"
        },
        {
            "bufferView" : 5,
            "componentType" : 5123,
            "count" : 1440,
            "type" : "SCALAR"
        },
        {
            "bufferView" : 7,
            "componentType" : 5126,
            "count" : 8,
            "type" : "MAT4"
        },
        {
            "bufferView" : 8,
            "componentType" : 5126,
            "count" : 60,
            "max" : [
                2.5
            ],
            "min" : [
                0.041666666666666664
            ],
            "type" : "SCALAR"
        },
        {
            "bufferView" : 9,
            "componentType" : 5126,
            "count" : 60,
            "type" : "VEC3"
        },
        {
            "bufferView" : 10,
            "componentType" : 5126,
            "count" : 60,
            "type" : "VEC4"
        },
        {
            "bufferView" : 11,
            "componentType" : 5126,
            "count" : 60,
            "type" : "VEC3"
        },
        {
            "bufferView" : 12,
            "componentType" : 5126,
            "count" : 60,
            "type" : "VEC3"
        },
        {
            "bufferView" : 13,
            "componentType" : 5126,
            "count" : 60,
            "type" : "VEC4"
        },
        {
            "bufferView" : 14,
            "componentType" : 5126,
            "count" : 60,
            "type" : "VEC3"
        },
        {
            "bufferView" : 15,
            "componentType" : 5126,
            "count" : 60,
            "type" : "VEC3"
        },
        {
            "bufferView" : 16,
            "componentType" : 5126,
            "count" : 60,
            "type" : "VEC4"
        },
        {
            "bufferView" : 17,
            "componentType" : 5126,
            "count" : 60,
            "type" : "VEC3"
        },
        {
            "bufferView" : 18,
            "componentType" : 5126,
            "count" : 60,
            "type" : "VEC3"
        },
        {
            "bufferView" : 19,
            "componentType" : 5126,
            "count" : 60,
            "type" : "VEC4"
        },
        {
            "bufferView" : 20,
            "componentType" : 5126,
            "count" : 60,
            "type" : "VEC3"
        },
        {
            "bufferView" : 21,
            "componentType" : 5126,
            "count" : 60,
            "type" : "VEC3"
        },
        {
            "bufferView" : 22,
            "componentType" : 5126,
            "count" : 60,
            "type" : "VEC4"
        },
        {
            "bufferView" : 23,
            "componentType" : 5126,
            "count" : 60,
            "type" : "VEC3"
        },
        {
            "bufferView" : 24,
            "componentType" : 5126,
            "count" : 60,
            "type" : "VEC3"
        },
        {
            "bufferView" : 25,
            "componentType" : 5126,
            "count" : 60,
            "type" : "VEC4"
        },
        {
            "bufferView" : 26,
            "componentType" : 5126,
            "count" : 60,
            "type" : "VEC3"
        },
        {
            "bufferView" : 27,
            "componentType" : 5126,
            "count" : 60,
            "type" : "VEC3"
        },
        {
            "bufferView" : 28,
            "componentType" : 5126,
            "count" : 60,
            "type" : "VEC4"
        },
        {
            "bufferView" : 29,
            "componentType" : 5126,
            "count" : 60,
            "type" : "VEC3"
        },
        {
            "bufferView" : 30,
            "componentType" : 5126,
            "count" : 60,
            "type" : "VEC3"
        },
        {
            "bufferView" : 31,
            "componentType" : 5126,
            "count" : 60,
            "type" : "VEC4"
        },
        {
            "bufferView" : 32,
            "componentType" : 5126,
            "count" : 60,
            "type" : "VEC3"
        }
    ],
    "bufferViews" : [
        {
            "buffer" : 0,
            "byteLength" : 10632,
            "byteOffset" : 0,
            "target" : 34962
        },
        {
            "buffer" : 0,
            "byteLength" : 10632,
            "byteOffset" : 10632,
            "target" : 34962
        },
        {
            "buffer" : 0,
            "byteLength" : 7088,
            "byteOffset" : 21264,
            "target" : 34962
        },
        {
            "buffer" : 0,
            "byteLength" : 3544,
            "byteOffset" : 28352,
            "target" : 34962
        },
        {
            "buffer" : 0,
            "byteLength" : 14176,
            "byteOffset" : 31896,
            "target" : 34962
        },
        {
            "buffer" : 0,
            "byteLength" : 2880,
            "byteOffset" : 46072,
            "target" : 34963
        },
        {
            "buffer" : 0,
            "byteLength" : 10449,
            "byteOffset" : 48952
        },
        {
            "buffer" : 0,
            "byteLength" : 512,
            "byteOffset" : 59404
        },
        {
            "buffer" : 0,
            "byteLength" : 240,
            "byteOffset" : 59916
        },
        {
            "buffer" : 0,
            "byteLength" : 720,
            "byteOffset" : 60156
        },
        {
            "buffer" : 0,
            "byteLength" : 960,
            "byteOffset" : 60876
        },
        {
            "buffer" : 0,
            "byteLength" : 720,
            "byteOffset" : 61836
        },
        {
            "buffer" : 0,
            "byteLength" : 720,
            "byteOffset" : 62556
        },
        {
            "buffer" : 0,
            "byteLength" : 960,
            "byteOffset" : 63276
        },
        {
            "buffer" : 0,
            "byteLength" : 720,
            "byteOffset" : 64236
        },
        {
            "buffer" : 0,
            "byteLength" : 720,
            "byteOffset" : 64956
        },
        {
            "buffer" : 0,
            "byteLength" : 960,
            "byteOffset" : 65676
        },
        {
            "buffer" : 0,
            "byteLength" : 720,
            "byteOffset" : 66636
        },
        {
            "buffer" : 0,
            "byteLength" : 720,
            "byteOffset" : 67356
        },
        {
            "buffer" : 0,
            "byteLength" : 960,
            "byteOffset" : 68076
        },
        {
            "buffer" : 0,
            "byteLength" : 720,
            "byteOffset" : 69036
        },
        {
            "buffer" : 0,
            "byteLength" : 720,
            "byteOffset" : 69756
        },
        {
            "buffer" : 0,
            "byteLength" : 960,
            "byteOffset" : 70476
        },
        {
            "buffer" : 0,
            "byteLength" : 720,
            "byteOffset" : 71436
        },
        {
            "buffer" : 0,
            "byteLength" : 720,
            "byteOffset" : 72156
        },
        {
            "buffer" : 0,
            "byteLength" : 960,
            "byteOffset" : 72876
        },
        {
            "buffer" : 0,
            "byteLength" : 720,
            "byteOffset" : 73836
        },
        {
            "buffer" : 0,
            "byteLength" : 720,
            "byteOffset" : 74556
        },
        {
            "buffer" : 0,
            "byteLength" : 960,
            "byteOffset" : 75276
        },
        {
            "buffer" : 0,
            "byteLength" : 720,
            "byteOffset" : 76236
        },
        {
            "buffer" : 0,
            "byteLength" : 720,
            "byteOffset" : 76956
        },
        {
            "buffer" : 0,
            "byteLength" : 960,
            "byteOffset" : 77676
        },
        {
            "buffer" : 0,
            "byteLength" : 720,
            "byteOffset" : 78636
        }
    ],
    "samplers" : [
        {
            "magFilter" : 9729,
            "minFilter" : 9987
        }
    ],
    "buffers" : [
        {
            "byteLength" : 79356,
            "uri" : "data:application/octet-stream;base64,"
        }
    ]
}
